<?xml version="1.0" encoding="UTF-8" standalone="no"?>
<!-- Generator: Adobe Illustrator 15.0.0, SVG Export Plug-In . SVG Version: 6.00 Build 0)  -->

<svg
   xmlns:dc="http://purl.org/dc/elements/1.1/"
   xmlns:cc="http://creativecommons.org/ns#"
   xmlns:rdf="http://www.w3.org/1999/02/22-rdf-syntax-ns#"
   xmlns:svg="http://www.w3.org/2000/svg"
   xmlns="http://www.w3.org/2000/svg"
   xmlns:sodipodi="http://sodipodi.sourceforge.net/DTD/sodipodi-0.dtd"
   xmlns:inkscape="http://www.inkscape.org/namespaces/inkscape"
   version="1.1"
   id="Layer_1"
   x="0px"
   y="0px"
   width="512"
   height="512"
   viewBox="0 0 512 512"
   enable-background="new 0 0 26 26"
   xml:space="preserve"
   inkscape:version="0.48.2 r9819"
   sodipodi:docname="speedometer3.svg"><metadata
   id="metadata17"><rdf:RDF><cc:Work
       rdf:about=""><dc:format>image/svg+xml</dc:format><dc:type
         rdf:resource="http://purl.org/dc/dcmitype/StillImage" /></cc:Work></rdf:RDF></metadata><defs
   id="defs15" /><sodipodi:namedview
   pagecolor="#ffffff"
   bordercolor="#666666"
   borderopacity="1"
   objecttolerance="10"
   gridtolerance="10"
   guidetolerance="10"
   inkscape:pageopacity="0"
   inkscape:pageshadow="2"
   inkscape:window-width="1440"
   inkscape:window-height="806"
   id="namedview13"
   showgrid="false"
   fit-margin-top="0"
   fit-margin-left="0"
   fit-margin-right="0"
   fit-margin-bottom="0"
   inkscape:zoom="0.53588673"
   inkscape:cx="515.18697"
   inkscape:cy="76.009709"
   inkscape:window-x="0"
   inkscape:window-y="0"
   inkscape:window-maximized="1"
   inkscape:current-layer="Layer_1" />
<path
   d="M 15.600999,488.59399"
   id="path3"
   inkscape:connector-curvature="0" />
<g
   id="g5"
   transform="matrix(25.364114,0,0,27.48698,-75.001685,-117.67176)"
   style="fill:#ffffff">
	<path
   d="m 13.4,16.038 c 0.503,0 0.91,-0.41 0.91,-0.913 0,-0.502 -0.407,-0.909 -0.91,-0.909 l -4.126,-3.035 3.215,4.002 c 0.03,0.477 0.427,0.855 0.911,0.855 z"
   id="path7"
   inkscape:connector-curvature="0"
   style="fill:#ffffff" />
	<path
   d="m 13.049,4.281 c -5.574,0 -10.092,4.518 -10.092,10.092 0,2.077 0.628,4.008 1.705,5.611 h 1.26 l 0.027,0.031 0.036,-0.031 H 6.033 C 6.026,19.976 6.021,19.966 6.014,19.959 L 7.763,18.431 6.918,17.465 5.287,18.89 C 4.512,17.562 4.061,16.022 4.061,14.373 c 0,-0.078 0.009,-0.151 0.011,-0.229 L 6.078,14.142 V 12.859 H 4.198 C 4.464,11.295 5.124,9.867 6.086,8.69 L 7.495,10.097 8.402,9.19 6.974,7.762 C 8.376,6.473 10.182,5.619 12.185,5.428 L 12.186,7.734 13.47,7.733 V 5.406 c 2.238,0.103 4.26,1.018 5.778,2.466 l -1.461,1.463 0.908,0.907 1.419,-1.417 c 0.905,1.151 1.53,2.528 1.787,4.035 l -1.953,0.002 v 1.283 h 2.079 c 0.003,0.077 0.013,0.15 0.013,0.229 0,1.641 -0.446,3.174 -1.216,4.497 l -1.532,-1.53 -0.905,0.907 1.703,1.705 0,0 c -0.006,0.01 -0.016,0.021 -0.023,0.032 h 1.372 c 1.075,-1.604 1.704,-3.534 1.704,-5.611 C 23.144,8.799 18.625,4.281 13.049,4.281 z"
   id="path9"
   inkscape:connector-curvature="0"
   style="fill:#ffffff" />
	<rect
   x="8.4619999"
   y="20.540001"
   width="9.0939999"
   height="2.368"
   id="rect11"
   style="fill:#ffffff" />
</g>
</svg>