<?xml version="1.0" encoding="UTF-8" standalone="no"?>
<!-- Generator: Adobe Illustrator 16.0.0, SVG Export Plug-In . SVG Version: 6.00 Build 0)  -->

<svg
   xmlns:dc="http://purl.org/dc/elements/1.1/"
   xmlns:cc="http://creativecommons.org/ns#"
   xmlns:rdf="http://www.w3.org/1999/02/22-rdf-syntax-ns#"
   xmlns:svg="http://www.w3.org/2000/svg"
   xmlns="http://www.w3.org/2000/svg"
   xmlns:sodipodi="http://sodipodi.sourceforge.net/DTD/sodipodi-0.dtd"
   xmlns:inkscape="http://www.inkscape.org/namespaces/inkscape"
   version="1.1"
   id="Layer_1"
   x="0px"
   y="0px"
   width="512"
   height="512"
   viewBox="0 0 512.00001 512"
   enable-background="new 0 0 126 126"
   xml:space="preserve"
   inkscape:version="0.48.2 r9819"
   sodipodi:docname="monitor.svg"><metadata
   id="metadata9"><rdf:RDF><cc:Work
       rdf:about=""><dc:format>image/svg+xml</dc:format><dc:type
         rdf:resource="http://purl.org/dc/dcmitype/StillImage" /></cc:Work></rdf:RDF></metadata><defs
   id="defs7" /><sodipodi:namedview
   pagecolor="#ffffff"
   bordercolor="#666666"
   borderopacity="1"
   objecttolerance="10"
   gridtolerance="10"
   guidetolerance="10"
   inkscape:pageopacity="0"
   inkscape:pageshadow="2"
   inkscape:window-width="1440"
   inkscape:window-height="807"
   id="namedview5"
   showgrid="false"
   inkscape:zoom="1"
   inkscape:cx="252.17232"
   inkscape:cy="269.27953"
   inkscape:window-x="0"
   inkscape:window-y="0"
   inkscape:window-maximized="1"
   inkscape:current-layer="Layer_1"
   fit-margin-top="0"
   fit-margin-left="0"
   fit-margin-right="0"
   fit-margin-bottom="0" />
<path
   d="M 0,-5e-6 V 512 H 512.00001 V -5e-6 H 0 z M 439.18409,88.323438 V 16.560646 h 58.68409 V 226.787 c -4.51597,-17.30588 -11.8668,-38.70774 -22.83413,-52.90022 h 22.17018 v -2.76009 h -24.44467 c -6.67271,-7.6676 -14.58388,-12.65234 -23.9172,-12.65234 -3.43289,0 -6.63975,0.71211 -9.65827,1.93208 V 91.083562 h 58.02014 v -2.760111 h -58.02014 z m 0,85.563332 h 21.60039 c 18.62428,14.0103 29.65754,58.19964 33.24585,80.04313 h -54.84152 v -80.04313 z m 2.41573,-2.7601 c 2.28861,-1.04332 4.70435,-1.6119 7.24254,-1.6119 2.55227,0 4.9963,0.56858 7.33667,1.6119 H 441.59982 z M 368.54848,16.560646 h 68.28111 V 88.323438 H 368.54848 V 16.560646 z m 0,74.522902 h 68.28111 v 70.421392 c -4.25225,2.20255 -8.08074,5.51469 -11.51831,9.62173 h -56.7628 V 91.083548 z m 0,82.803222 h 54.58248 c -18.23809,24.68641 -24.65651,71.19975 -25.73489,80.04314 H 368.54848 V 173.88677 z M 397.05703,256.69 c -2.42987,20.42482 -11.27345,63.97379 -28.50855,79.84994 v -79.84993 h 28.50855 z m -99.14418,-11.45443 c 0.64043,3.15756 1.17726,6.0888 1.60578,8.69435 h -1.60578 v -8.69435 z m 0,11.45443 h 2.03901 c 0.0187,0.0993 0.0378,0.2153 0.0518,0.31464 l 0.0236,-0.005 c 0.56038,3.79791 8.16077,53.11552 27.68917,79.73399 h -29.79888 v -80.04354 z m 11.63133,0 h 56.64978 v 80.04314 H 341.31609 C 323.33226,321.06124 312.784,277.35218 309.54418,256.69 z m 55.16172,82.80324 c -3.0232,1.91001 -6.26773,2.99199 -9.75713,2.99199 -3.49882,0 -6.79986,-1.08198 -9.90312,-2.99199 H 364.7059 z M 297.91285,16.560646 h 68.28111 V 88.323438 H 297.91285 V 16.560646 z m 0,74.522902 h 68.28111 V 171.12667 H 297.91285 V 91.083548 z m 68.28111,82.803222 v 80.04314 h -57.10185 c -0.80053,-5.1062 -4.18162,-24.95689 -11.17926,-45.28233 v -34.76079 h 68.28111 z m -70.63563,28.31319 c -3.98856,-10.37801 -8.94718,-20.44688 -15.03127,-28.31319 h 15.03127 v 28.31319 z M 227.27721,16.560646 h 68.28112 V 88.323438 H 227.27721 V 16.560646 z m 0,74.522902 h 68.28112 V 171.12667 H 278.2526 c -6.67272,-7.66206 -14.58391,-12.65233 -23.92194,-12.65233 -9.36157,0 -17.11736,4.98474 -23.53108,12.65233 h -3.52237 V 91.083548 z m 34.39014,80.043122 h -14.58861 c 2.2933,-1.04332 4.70904,-1.6119 7.25192,-1.6119 2.5523,0 4.99629,0.56858 7.33669,1.6119 z m -33.04335,2.7601 c -0.45678,0.61275 -0.90413,1.22549 -1.34208,1.86584 v -1.86584 H 228.624 z M 156.64158,16.560646 h 68.28111 V 88.323438 H 156.64158 V 16.560646 z m 0,74.522902 h 68.28111 V 171.12667 H 156.64158 V 91.083548 z m 0,82.803222 h 68.28111 v 5.52022 c -15.42682,25.54203 -21.04,66.2978 -22.04302,74.52291 h -46.23809 v -80.04313 z m 0,82.80323 h 45.89903 c -2.42515,20.51313 -11.32053,64.33814 -28.72044,80.04314 H 156.64158 V 256.69 z m 13.56204,82.80324 c -3.02791,1.91001 -6.27244,2.99199 -9.76655,2.99199 -1.29499,0 -2.5523,-0.18769 -3.79549,-0.46925 v -2.52274 h 13.56204 z m -55.61379,-85.56333 c -1.29498,-8.26376 -9.36157,-55.20216 -28.565047,-80.04314 h 68.266987 v 80.04314 h -39.70194 z m -9.57819,0 H 86.010657 v -61.58905 c 10.12915,19.25452 16.453393,46.06068 19.000983,61.58905 z m -19.005691,2.7601 h 19.438921 c 0.0143,0.0993 0.033,0.21529 0.0471,0.31463 l 0.0236,-0.005 c 0.55567,3.79791 8.16077,53.11553 27.68917,79.734 H 86.005949 v -80.04355 z m 29.026531,0 h 39.25458 v 80.04314 h -7.48738 c -17.98383,-15.6719 -28.53208,-59.38096 -31.7672,-80.04314 z m 39.25458,82.80323 v 1.82719 c -1.28086,-0.47474 -2.53817,-1.07642 -3.75781,-1.82719 h 3.75781 z M 86.005949,16.560646 H 154.28706 V 88.323438 H 86.005949 V 16.560646 z m 0,74.522902 H 154.28706 V 171.12667 H 86.005949 V 91.083548 z M 83.651428,16.560646 V 88.323438 H 14.786393 v 2.76011 h 68.865035 v 79.932712 c -6.653877,-7.60133 -14.536814,-12.54192 -23.832463,-12.54192 -9.361575,0 -17.112662,4.98474 -23.531085,12.65233 H 14.786393 v 2.7601 h 19.325909 c -9.644118,13.05532 -15.991907,32.21047 -19.985175,48.69935 V 16.560646 H 83.651428 z M 67.155652,171.12667 H 52.576457 c 2.288593,-1.04332 4.704332,-1.6119 7.242508,-1.6119 2.55701,0 4.996292,0.56858 7.336687,1.6119 z M 83.651428,336.73314 H 14.786393 v 2.7601 h 68.865035 v 80.04312 H 14.786393 v 2.76011 h 68.865035 v 73.14285 H 14.127127 V 256.26495 l 0.663975,0.0994 v 0.33121 h 2.184995 l 0.574503,0.0883 c 0.0047,-0.0274 0.0094,-0.0607 0.0094,-0.0883 h 66.096136 v 80.03758 z M 17.889652,253.9299 c 2.745371,-21.70549 12.130493,-66.01074 30.199088,-80.04313 h 23.677066 c 4.384118,3.29558 8.33971,8.26377 11.885622,14.22008 V 253.9299 H 17.889652 z M 154.28706,495.43932 H 86.005949 v -73.14285 h 68.281111 v 73.14285 z M 86.005949,419.53636 v -80.04312 h 49.313091 c 5.42953,6.64083 11.72551,11.45445 18.96802,13.23748 v 66.80566 H 86.005949 z m 138.916741,75.90296 h -68.28111 v -73.14285 h 68.28111 v 73.14285 z m 0,-75.90296 h -68.28111 v -66.29778 c 1.23848,0.18216 2.5005,0.28708 3.79549,0.28708 9.92195,0 18.04976,-5.57541 24.67538,-14.0324 h 39.81024 v 80.04313 z m 0,-82.80323 h -37.78064 c 18.64781,-26.67367 24.47289,-76.14033 24.8967,-79.96031 l 0.0187,0.005 c 0.005,-0.0276 0.005,-0.0607 0.009,-0.0883 h 12.85569 v 80.04325 z m -12.53076,-82.80322 c 1.64346,-13.01115 5.6744,-34.13703 12.53076,-52.01148 v 52.01148 h -12.53076 z m 83.1664,241.50942 h -68.28112 v -73.14285 h 68.28112 v 73.14285 z m 0,-75.90296 h -68.28112 v -80.04312 h 68.28112 v 80.04312 z m 0,-82.80323 h -68.28112 v -80.04313 h 68.28112 v 80.04313 z m -68.28112,-82.80323 v -57.74698 c 4.18163,-9.50581 9.25327,-17.59844 15.3091,-22.29615 h 23.68649 c 14.07532,10.5933 23.81833,38.42622 29.28553,60.83278 v 19.21035 h -68.28112 z m 138.91675,241.50942 h -68.28111 v -73.14285 h 68.28111 v 73.14285 z m -68.28111,-75.90296 v -80.04312 h 31.91789 c 6.91758,8.45697 15.21491,14.03238 25.11332,14.03238 4.04036,0 7.77463,-0.9605 11.2499,-2.62761 v 68.63835 h -68.28111 z m 138.91674,75.90296 h -68.28111 v -73.14285 h 68.28111 v 73.14285 z m 0,-75.90296 h -68.28111 v -69.87489 c 4.08745,-2.44545 7.76521,-5.95077 11.07567,-10.16823 h 57.20544 v 80.04312 z m 0,-82.80323 h -55.17584 c 18.64309,-26.66816 24.47289,-76.12377 24.90141,-79.9548 h 0.0187 c 0.004,-0.0274 0.004,-0.0607 0.008,-0.0883 h 30.25087 v 80.04311 z m -29.91655,-82.80323 c 2.73124,-21.58956 12.03632,-65.53599 29.92123,-79.81128 v 79.81128 h -29.92123 z m 32.27105,241.50942 v -73.14285 h 58.02014 v -2.76011 h -58.02014 v -80.04312 h 58.02014 v -2.7601 h -58.02014 v -80.04314 h 55.27944 c 0.0122,0.0993 0.0326,0.2153 0.0472,0.31464 l 1.55869,-0.31464 h 1.13488 v -0.22628 l 0.66395,-0.13246 v 239.10809 h -58.68417 z"
   id="path3"
   style="fill:#ffffff"
   inkscape:connector-curvature="0" />
</svg>