<?xml version="1.0" encoding="UTF-8" standalone="no"?>
<!-- Generator: Adobe Illustrator 16.0.0, SVG Export Plug-In . SVG Version: 6.00 Build 0)  -->

<svg
   xmlns:dc="http://purl.org/dc/elements/1.1/"
   xmlns:cc="http://creativecommons.org/ns#"
   xmlns:rdf="http://www.w3.org/1999/02/22-rdf-syntax-ns#"
   xmlns:svg="http://www.w3.org/2000/svg"
   xmlns="http://www.w3.org/2000/svg"
   xmlns:sodipodi="http://sodipodi.sourceforge.net/DTD/sodipodi-0.dtd"
   xmlns:inkscape="http://www.inkscape.org/namespaces/inkscape"
   version="1.1"
   id="Layer_1"
   x="0px"
   y="0px"
   width="512px"
   height="512px"
   viewBox="0 0 512 512"
   enable-background="new 0 0 512 512"
   xml:space="preserve"
   inkscape:version="0.48.2 r9819"
   sodipodi:docname="device_manager.svg"><metadata
   id="metadata9"><rdf:RDF><cc:Work
       rdf:about=""><dc:format>image/svg+xml</dc:format><dc:type
         rdf:resource="http://purl.org/dc/dcmitype/StillImage" /></cc:Work></rdf:RDF></metadata><defs
   id="defs7" /><sodipodi:namedview
   pagecolor="#ffffff"
   bordercolor="#666666"
   borderopacity="1"
   objecttolerance="10"
   gridtolerance="10"
   guidetolerance="10"
   inkscape:pageopacity="0"
   inkscape:pageshadow="2"
   inkscape:window-width="1440"
   inkscape:window-height="806"
   id="namedview5"
   showgrid="false"
   inkscape:zoom="0.4609375"
   inkscape:cx="256"
   inkscape:cy="256"
   inkscape:window-x="0"
   inkscape:window-y="0"
   inkscape:window-maximized="1"
   inkscape:current-layer="Layer_1" />
<path
   d="M304,256c0,20.875-13.406,38.438-32,45.063V512h-32V301.063c-18.594-6.625-32-24.188-32-45.063c0-26.5,21.5-48,48-48  S304,229.5,304,256z M313.969,146.5c-34.719-24.688-81.219-24.688-115.906,0c-34.719,24.688-50,68.625-38.063,109.5  c0-53,43-96,96-96c53.031,0,96,43,96,96C363.906,215.125,348.656,171.188,313.969,146.5z M340.5,92.719  c-49.844-38.281-119.188-38.281-169,0S103.813,198,128,256c-11.813-52.563,9.688-107,54.188-137.281  c44.563-30.281,103.063-30.281,147.594,0C374.344,149,395.813,203.438,384,256C408.156,198,390.313,131,340.5,92.719z M367.219,39  c-65.031-52-157.406-52-222.406,0C79.781,91.031,59.5,181.156,96,256c-24-69.938,0.25-147.375,59.844-191.156  s140.719-43.781,200.313,0S439.969,186.063,416,256C452.5,181.156,432.219,91.031,367.219,39z"
   id="path3"
   style="fill:#ffffff" />
</svg>