<?xml version="1.0" encoding="UTF-8" standalone="no"?>
<!-- Generator: Adobe Illustrator 16.0.4, SVG Export Plug-In . SVG Version: 6.00 Build 0)  -->

<svg
   xmlns:dc="http://purl.org/dc/elements/1.1/"
   xmlns:cc="http://creativecommons.org/ns#"
   xmlns:rdf="http://www.w3.org/1999/02/22-rdf-syntax-ns#"
   xmlns:svg="http://www.w3.org/2000/svg"
   xmlns="http://www.w3.org/2000/svg"
   xmlns:sodipodi="http://sodipodi.sourceforge.net/DTD/sodipodi-0.dtd"
   xmlns:inkscape="http://www.inkscape.org/namespaces/inkscape"
   version="1.1"
   id="Capa_1"
   x="0px"
   y="0px"
   width="512px"
   height="512px"
   viewBox="0 0 512 512"
   enable-background="new 0 0 512 512"
   xml:space="preserve"
   inkscape:version="0.48.2 r9819"
   sodipodi:docname="settings.svg"><metadata
   id="metadata9"><rdf:RDF><cc:Work
       rdf:about=""><dc:format>image/svg+xml</dc:format><dc:type
         rdf:resource="http://purl.org/dc/dcmitype/StillImage" /></cc:Work></rdf:RDF></metadata><defs
   id="defs7" /><sodipodi:namedview
   pagecolor="#ffffff"
   bordercolor="#666666"
   borderopacity="1"
   objecttolerance="10"
   gridtolerance="10"
   guidetolerance="10"
   inkscape:pageopacity="0"
   inkscape:pageshadow="2"
   inkscape:window-width="640"
   inkscape:window-height="480"
   id="namedview5"
   showgrid="false"
   inkscape:zoom="0.4609375"
   inkscape:cx="256"
   inkscape:cy="256"
   inkscape:window-x="0"
   inkscape:window-y="0"
   inkscape:window-maximized="0"
   inkscape:current-layer="Capa_1" />
<path
   d="M224,64v-8c0-13.2-10.8-24-24-24h-80c-13.2,0-24,10.8-24,24v8H0v64h96v8c0,13.2,10.8,24,24,24h80c13.2,0,24-10.8,24-24v-8  h288V64H224z M128,128V64h64v64H128z M416,216c0-13.2-10.8-24-24-24h-80c-13.2,0-24,10.8-24,24v8H0v64h288v8c0,13.2,10.8,24,24,24  h80c13.2,0,24-10.8,24-24v-8h96v-64h-96V216z M320,288v-64h64v64H320z M224,376c0-13.2-10.8-24-24-24h-80c-13.2,0-24,10.8-24,24v8H0  v64h96v8c0,13.2,10.8,24,24,24h80c13.2,0,24-10.8,24-24v-8h288v-64H224V376z M128,448v-64h64v64H128z"
   id="path3"
   style="fill:#ffffff" />
</svg>